<svg width="20" height="20" viewBox="0 0 20 20" fill="none" xmlns="http://www.w3.org/2000/svg">
<mask id="mask0_510_167" style="mask-type:alpha" maskUnits="userSpaceOnUse" x="0" y="0" width="20" height="20">
<rect width="20" height="20" fill="#D9D9D9"/>
</mask>
<g mask="url(#mask0_510_167)">
<path d="M4.66667 18.118C4.20833 18.118 3.81597 17.9584 3.48958 17.6391C3.16319 17.3199 3 16.9361 3 16.4877V8.3363C3 7.88797 3.16319 7.50417 3.48958 7.18491C3.81597 6.86564 4.20833 6.70601 4.66667 6.70601H8V8.3363H4.66667V16.4877H16.3333V8.3363H13V6.70601H16.3333C16.7917 6.70601 17.184 6.86564 17.5104 7.18491C17.8368 7.50417 18 7.88797 18 8.3363V16.4877C18 16.9361 17.8368 17.3199 17.5104 17.6391C17.184 17.9584 16.7917 18.118 16.3333 18.118H4.66667ZM10.5 14.0423L7.16667 10.7817L8.33333 9.64053L9.66667 10.9244V1H11.3333V10.9244L12.6667 9.64053L13.8333 10.7817L10.5 14.0423Z" fill="#1C1B1F"/>
</g>
</svg>
