<svg width="30" height="30" viewBox="0 0 30 30" fill="none" xmlns="http://www.w3.org/2000/svg">
<path d="M15.003 8.07754C11.1721 8.07754 8.0821 11.1682 8.0821 15C8.0821 18.8318 11.1721 21.9225 15.003 21.9225C18.8339 21.9225 21.9239 18.8318 21.9239 15C21.9239 11.1682 18.8339 8.07754 15.003 8.07754ZM15.003 19.5005C12.5274 19.5005 10.5035 17.4822 10.5035 15C10.5035 12.5178 12.5214 10.4995 15.003 10.4995C17.4847 10.4995 19.5025 12.5178 19.5025 15C19.5025 17.4822 17.4786 19.5005 15.003 19.5005ZM23.8213 7.79438C23.8213 8.69207 23.0985 9.40902 22.207 9.40902C21.3095 9.40902 20.5928 8.68604 20.5928 7.79438C20.5928 6.90271 21.3156 6.17974 22.207 6.17974C23.0985 6.17974 23.8213 6.90271 23.8213 7.79438ZM28.4051 9.43311C28.3027 7.27022 27.8088 5.35435 26.2247 3.77586C24.6465 2.19737 22.7311 1.70334 20.5687 1.59489C18.34 1.46837 11.66 1.46837 9.43134 1.59489C7.27496 1.69731 5.35951 2.19134 3.77535 3.76983C2.19119 5.34832 1.70329 7.2642 1.59487 9.42709C1.46838 11.6563 1.46838 18.3377 1.59487 20.5669C1.69727 22.7298 2.19119 24.6457 3.77535 26.2241C5.35951 27.8026 7.26893 28.2967 9.43134 28.4051C11.66 28.5316 18.34 28.5316 20.5687 28.4051C22.7311 28.3027 24.6465 27.8087 26.2247 26.2241C27.8028 24.6457 28.2967 22.7298 28.4051 20.5669C28.5316 18.3377 28.5316 11.6623 28.4051 9.43311ZM25.5259 22.9587C25.0561 24.1396 24.1466 25.0493 22.96 25.5253C21.183 26.2302 16.9666 26.0675 15.003 26.0675C13.0394 26.0675 8.81695 26.2241 7.04607 25.5253C5.86548 25.0553 4.95594 24.1456 4.48009 22.9587C3.77535 21.1814 3.93798 16.9641 3.93798 15C3.93798 13.0359 3.78137 8.81256 4.48009 7.04128C4.94992 5.86043 5.85945 4.95069 7.04607 4.47473C8.82298 3.76983 13.0394 3.9325 15.003 3.9325C16.9666 3.9325 21.1891 3.77586 22.96 4.47473C24.1405 4.94466 25.0501 5.8544 25.5259 7.04128C26.2307 8.81859 26.068 13.0359 26.068 15C26.068 16.9641 26.2307 21.1874 25.5259 22.9587Z" fill="#F7F6EB"/>
</svg>
